<?xml version="1.0" standalone="no"?>
<!DOCTYPE svg PUBLIC "-//W3C//DTD SVG 20010904//EN"
 "http://www.w3.org/TR/2001/REC-SVG-20010904/DTD/svg10.dtd">
<svg version="1.0" xmlns="http://www.w3.org/2000/svg"
 width="1200.000000pt" height="1200.000000pt" viewBox="0 0 1200.000000 1200.000000"
 preserveAspectRatio="xMidYMid meet">
<metadata>
Created by potrace 1.14, written by Peter Selinger 2001-2017
</metadata>
<g transform="translate(0.000000,1200.000000) scale(0.100000,-0.100000)"
fill="#000000" stroke="none">
<path d="M6268 11423 c6 -2 18 -2 25 0 6 3 1 5 -13 5 -14 0 -19 -2 -12 -5z"/>
<path d="M6455 11397 c590 -107 1079 -366 1491 -788 144 -148 221 -243 326
-404 541 -824 592 -1882 132 -2755 -74 -141 -224 -362 -327 -485 -389 -462
-944 -792 -1531 -910 -182 -36 -267 -45 -542 -55 -430 -15 -703 -70 -1039
-207 -223 -90 -475 -240 -675 -399 -125 -100 -332 -312 -434 -444 -258 -336
-434 -717 -516 -1118 -73 -363 -72 -757 6 -1122 216 -1026 1041 -1854 2069
-2079 255 -56 600 -75 942 -52 1492 100 2860 797 3817 1944 666 799 1088 1773
1216 2802 30 240 40 415 40 675 0 261 -10 435 -41 680 -253 2043 -1655 3773
-3609 4455 -417 145 -963 258 -1355 280 l-100 5 130 -23z m-311 -7282 c169
-30 308 -100 433 -219 175 -165 264 -369 265 -606 2 -332 -173 -616 -469 -764
-128 -64 -208 -81 -373 -81 -166 1 -224 13 -360 76 -302 141 -484 431 -482
769 1 236 90 441 264 606 197 187 456 265 722 219z"/>
<path d="M5855 9549 c-276 -54 -497 -223 -614 -469 -58 -121 -73 -186 -78
-335 -4 -109 -2 -144 16 -218 74 -311 303 -544 616 -628 112 -30 297 -30 410
0 320 85 556 333 620 650 21 101 16 293 -9 386 -24 89 -109 252 -169 321 -120
142 -260 230 -443 280 -71 19 -278 27 -349 13z"/>
</g>
</svg>
